<?xml version="1.0" encoding="utf-8"?>
<!-- Generator: Adobe Illustrator 25.0.0, SVG Export Plug-In . SVG Version: 6.00 Build 0)  -->
<svg version="1.1"
	 id="svg3336" xmlns:cc="http://creativecommons.org/ns#" xmlns:dc="http://purl.org/dc/elements/1.1/" xmlns:inkscape="http://www.inkscape.org/namespaces/inkscape" xmlns:rdf="http://www.w3.org/1999/02/22-rdf-syntax-ns#" xmlns:sodipodi="http://sodipodi.sourceforge.net/DTD/sodipodi-0.dtd" xmlns:svg="http://www.w3.org/2000/svg"
	 xmlns="http://www.w3.org/2000/svg" xmlns:xlink="http://www.w3.org/1999/xlink" x="0px" y="0px"
	 viewBox="0 0 113.8 32.5" enable-background="new 0 0 113.8 32.5" xml:space="preserve">
<g>
	<path fill="#FFFFFF" d="M38.6,3.3L35,8.4l3.8,5.5h-2L34,9.7l-2.8,4.2h-1.9l3.8-5.5l-3.5-5.1h2l2.6,3.8l2.6-3.8
		C36.8,3.3,38.6,3.3,38.6,3.3z M44.6,12.5c-1.5,0-2.4-0.9-2.4-2.4V3.3h-1.6v7c0,2.6,1.6,3.9,4,3.9c2.6,0,4.3-1.4,4.3-3.9v-7h-1.6
		v6.9C47.2,11.6,46.2,12.5,44.6,12.5 M58.7,3.3V11L53,3.3h-1.4v10.6h1.6V6.1l5.7,7.7h1.4V3.3H58.7z M72.1,3.3H62l0.7,1.6h3.6v9h1.6
		v-9h3.6L72.1,3.3z M76.5,3.3h-1.6l-4.6,10.6H72l1.2-2.8h4.9l1.2,2.8h1.8L76.5,3.3z M73.8,9.5l1.8-4.4l1.8,4.4H73.8z M38.2,23.9
		c0-3.2-2-5.2-5.1-5.2h-3.8v10.6h4C36.2,29.2,38.2,27.2,38.2,23.9 M36.5,23.9c0,2.4-1.4,3.8-3.5,3.8h-2.1v-7.5H33
		C35.1,20.2,36.5,21.5,36.5,23.9 M47,27.7h-5v-3h4.6v-1.5H42v-2.9h4.9l0.7-1.6h-7.2v10.6h7.3L47,27.7z M62.8,24c0-0.2,0-0.4,0-0.5
		h-5l0.7,1.5H61c-0.4,1.9-1.7,2.9-3.3,2.9c-2,0-3.6-1.5-3.6-4.1c0-2.4,1.5-3.8,3.8-3.8c1.2,0,2.7,0.6,3.9,1.5v-1.8
		c-1.1-0.7-2.5-1.2-3.9-1.2c-3.4,0-5.5,2.2-5.5,5.5c0,3.5,2.2,5.7,5.2,5.7C60.7,29.6,62.8,27.4,62.8,24 M69.5,18.6h-1.6l-4.6,10.6
		H65l1.2-2.8h4.9l1.2,2.8h1.8L69.5,18.6z M66.8,24.9l1.8-4.4l1.8,4.4H66.8z M82.5,27.7h-5.2v-9h-1.6v10.6h7.5L82.5,27.7z M86.6,18.6
		H85v10.6h1.6V18.6z M93.8,18.4c-3.1,0-5.1,2.1-5.1,5.5c0,3.5,1.9,5.7,4.9,5.7c1.6,0,3.1-0.6,4.2-1.7l-1-1.2c-0.8,0.7-2,1.2-3.1,1.2
		c-1.8,0-3.2-1.5-3.2-4.1c0-2.4,1.4-3.8,3.4-3.8c1.1,0,2.5,0.5,3.5,1.3v-1.8C96.4,18.9,95.1,18.4,93.8,18.4 M101.5,18.6h-1.6v10.6
		h1.6V18.6z M109.2,18.6h-1.6L103,29.2h1.7l1.2-2.8h4.9l1.2,2.8h1.8L109.2,18.6z M106.5,24.9l1.8-4.4l1.8,4.4H106.5z"/>
	<g>
		<g>
			<path fill="#FFFFFF" d="M0,0v32.5h22.8V0H0z M10.6,2.7h0.5V2.2h0.5v0.5h0.5v0.5h-0.5v0.5h-0.5V3.3h-0.5V2.7z M6.5,26H5.4v1.1H4.3
				V26h-1v-1.1h1.1v-1.1h1.1v1.1h1.1L6.5,26L6.5,26z M6.5,19.5H5.4v1.1H4.3v-1.1h-1v-1.1h1.1v-1.1h1.1v1.1h1.1L6.5,19.5L6.5,19.5z
				 M6.5,13H5.4v1.1H4.3V13h-1v-1.1h1.1v-1.1h1.1v1.1h1.1L6.5,13L6.5,13z M11.9,24.3c0,0.2,0,0.4,0,0.6c0,1.6,0.5,3.1,1.4,4.3H9.5
				c0.9-1.2,1.4-2.7,1.4-4.3c0-0.2,0-0.4,0-0.6c-1.8-0.3-3.2-1.8-3.2-3.7h7.6C15.2,22.5,13.8,24.1,11.9,24.3z M13,11.9V13h-1.1v1.1
				h-1.1V13h-1v-1.1h1.1v-1.1H12v1.1H13z M11.4,15.2c1.2,0,2.2,1,2.2,2.2c0,1.2-1,2.2-2.2,2.2s-2.2-1-2.2-2.2
				C9.2,16.1,10.2,15.2,11.4,15.2z M15.2,9.5H7.6V8.7h7.6V9.5z M15.9,7.3l-0.4,0.6h-1l0.7-1c0.1-0.2,0.2-0.4,0.2-0.6
				c0-0.3-0.1-0.5-0.2-0.6c-0.2-0.2-0.4-0.3-0.7-0.3c-0.1,0-0.2,0-0.2,0l0,0c0.1,0.2,0.1,0.4,0.1,0.6c0,0.4,0,0.6-0.2,1l-0.6,1h-1
				l0.8-1.4c0.1-0.1,0.1-0.4,0.1-0.6c0-0.3-0.1-0.5-0.3-0.7C13,5,12.8,4.9,12.5,4.9S11.9,5,11.8,5.2v2.6H11V5.2
				c-0.2-0.2-0.4-0.3-0.7-0.3C10,4.9,9.7,5,9.5,5.2C9.3,5.4,9.2,5.7,9.2,5.9c0,0.2,0.1,0.4,0.1,0.6l0.8,1.4h-1l-0.6-1
				c-0.2-0.3-0.2-0.6-0.2-1c0-0.2,0-0.4,0.1-0.6l0,0c0,0-0.1,0-0.2,0C8,5.3,7.8,5.4,7.6,5.6C7.4,5.8,7.3,6,7.3,6.2
				c0,0.1,0,0.4,0.2,0.6l0.7,1h-1L6.8,7.3C6.6,7,6.5,6.6,6.5,6.2C6.5,5.7,6.7,5.3,7,5c0.4-0.4,0.8-0.5,1.3-0.5c0.2,0,0.4,0,0.7,0.1
				c0,0,0,0,0.1-0.1C9.4,4.2,9.8,4,10.3,4c0.4,0,0.8,0.1,1.1,0.4C11.7,4.1,12.1,4,12.5,4c0.5,0,0.9,0.2,1.2,0.5c0,0,0,0,0.1,0.1
				c0.2-0.1,0.5-0.1,0.7-0.1c0.5,0,0.9,0.2,1.3,0.5c0.3,0.3,0.5,0.7,0.5,1.3C16.2,6.6,16.1,7,15.9,7.3z M19.5,26h-1.1v1.1h-1.1V26
				h-1.1v-1.1h1.1v-1.1h1.1v1.1h1.1V26z M19.5,19.5h-1.1v1.1h-1.1v-1.1h-1.1v-1.1h1.1v-1.1h1.1v1.1h1.1V19.5z M19.5,13h-1.1v1.1
				h-1.1V13h-1.1v-1.1h1.1v-1.1h1.1v1.1h1.1V13z"/>
		</g>
	</g>
</g>
</svg>
